<svg width="160" height="41" viewBox="0 0 160 41" fill="none" xmlns="http://www.w3.org/2000/svg">
<g clip-path="url(#clip0_1_6)">
<path d="M14.4796 13.9224L18.0761 20.1589L14.4796 26.3953H7.29141L3.70472 20.1589L7.30125 13.9224H14.4894H14.4796ZM16.3381 10.7217H5.44275L0 20.1613L5.44275 29.601H16.3283L21.771 20.1613L16.3283 10.7217H16.3381Z" fill="#FFC147"/>
<path d="M33.6791 25.0239L37.2756 31.2604L33.6791 37.4968H26.491L22.8944 31.2604L26.491 25.0239H33.6791ZM35.5278 21.8232H24.6423L19.1922 31.2604L24.6349 40.7024H35.5203L40.9631 31.2604L35.5278 21.8208V21.8232Z" fill="#794EFF"/>
<path d="M33.4503 3.21478L36.8184 9.05731L33.4503 14.8998H26.7146L23.3467 9.05731L26.7146 3.21478H33.4503ZM35.2991 0.0140686H24.8684L19.6543 9.06222L24.8684 18.1104H35.3016L40.5156 9.06222L35.3016 0.0140686H35.2991Z" fill="#97E747"/>
<path d="M67.4738 13.5801C68.3472 13.9779 69.0831 14.6266 69.5878 15.4439C70.1763 16.3303 70.4703 17.5195 70.4703 19.0115V27.262H65.9988V18.9992C65.9988 18.2803 65.7897 17.7558 65.3769 17.4235C64.9572 17.0923 64.4356 16.9182 63.9019 16.931C63.6366 16.9236 63.3731 16.977 63.1316 17.0871C62.89 17.1972 62.6766 17.3611 62.5078 17.5663C62.1466 17.9922 61.9694 18.6373 61.9694 19.5039V27.262H57.52V18.9992C57.52 18.2803 57.3125 17.755 56.8981 17.4235C56.4788 17.092 55.9569 16.9178 55.4231 16.931C55.1588 16.9231 54.8963 16.975 54.655 17.0828C54.4134 17.1907 54.1997 17.3517 54.0291 17.5539C53.6703 17.9676 53.4906 18.6176 53.4906 19.5039V27.262H49.0413V13.4423H53.4881V14.1809C54.3481 13.4564 55.435 13.0572 56.5588 13.0533C57.3791 13.0573 58.1906 13.2247 58.9456 13.5457C59.7628 13.8884 60.46 14.4659 60.9494 15.2051C61.4469 14.5761 62.0613 14.0493 62.7588 13.654C63.4506 13.2538 64.2359 13.044 65.035 13.0459C65.8756 13.0562 66.7056 13.2381 67.4738 13.5801Z" fill="#794EFF"/>
<path d="M75.1659 26.7031C74.0606 26.0666 73.1416 25.1506 72.5009 24.0465C71.8584 22.9328 71.52 21.6692 71.52 20.3829C71.52 19.0966 71.8584 17.833 72.5009 16.7193C73.1422 15.6158 74.0612 14.6999 75.1659 14.0628C76.2787 13.4206 77.5406 13.0827 78.825 13.0827C80.1094 13.0827 81.3712 13.4206 82.4844 14.0628C83.5884 14.7005 84.5072 15.6163 85.1491 16.7193C85.79 17.8336 86.1275 19.097 86.1275 20.3829C86.1275 21.6688 85.79 22.9322 85.1491 24.0465C84.5078 25.1501 83.5891 26.066 82.4844 26.7031C81.3719 27.3466 80.1097 27.6855 78.825 27.6855C77.5403 27.6855 76.2784 27.3466 75.1659 26.7031ZM80.8397 22.4018C81.1066 22.138 81.3187 21.8236 81.4634 21.4771C81.6081 21.1305 81.6825 20.7586 81.6825 20.3829C81.6825 20.0072 81.6081 19.6353 81.4634 19.2888C81.3187 18.9422 81.1066 18.6279 80.8397 18.364C80.5753 18.0953 80.2594 17.8833 79.9106 17.7406C79.5619 17.598 79.1881 17.5278 78.8116 17.5343C78.4381 17.5343 78.0681 17.608 77.7231 17.7511C77.3781 17.8943 77.0644 18.1041 76.8003 18.3686C76.5362 18.6332 76.3266 18.9472 76.1837 19.2928C76.0409 19.6384 75.9672 20.0088 75.9672 20.3829C75.9672 20.757 76.0409 21.1274 76.1837 21.473C76.3266 21.8187 76.5362 22.1327 76.8003 22.3972C77.0644 22.6617 77.3781 22.8716 77.7231 23.0147C78.0681 23.1579 78.4381 23.2315 78.8116 23.2315C79.1881 23.238 79.5619 23.1678 79.9106 23.0252C80.2594 22.8825 80.5753 22.6705 80.8397 22.4018Z" fill="#794EFF"/>
<path d="M91.8728 23.0518C92.0925 23.1906 92.3516 23.2537 92.6103 23.2315C92.7209 23.2315 92.9963 23.2143 93.4388 23.1774V27.262C92.6797 27.3734 91.9144 27.4384 91.1475 27.4565C89.8216 27.4565 88.8319 27.111 88.1778 26.4199C87.5241 25.7289 87.1962 24.4979 87.1947 22.7268V7.90997H91.6391V22.4018C91.6269 22.5208 91.6412 22.641 91.6819 22.7535C91.7222 22.8661 91.7875 22.968 91.8728 23.0518Z" fill="#794EFF"/>
<path d="M105.017 14.0233C106.073 14.6553 106.937 15.5635 107.515 16.6504C108.124 17.7932 108.433 19.0727 108.413 20.3681C108.425 20.8879 108.379 21.4074 108.275 21.9168H98.5544C99.1609 23.2299 100.238 23.8864 101.787 23.8864C102.284 23.8863 102.776 23.7884 103.235 23.5984C103.672 23.4277 104.058 23.146 104.354 22.7809L107.724 24.7728C107.08 25.6964 106.21 26.439 105.197 26.9296C104.104 27.4397 102.909 27.6924 101.704 27.6682C100.314 27.6973 98.9406 27.3693 97.7137 26.7154C96.5947 26.1104 95.6706 25.1993 95.0491 24.0883C94.4169 22.9516 94.0931 21.669 94.1097 20.3681C94.0931 19.069 94.4116 17.7876 95.0341 16.6479C95.6372 15.5463 96.5366 14.6362 97.63 14.0208C98.7894 13.3733 100.099 13.0437 101.426 13.0656C102.689 13.0446 103.932 13.3762 105.017 14.0233ZM104.25 18.5018C104.192 18.2424 104.074 18 103.907 17.7937C103.739 17.5874 103.526 17.4228 103.284 17.3127C102.67 17.0308 102.001 16.8897 101.325 16.8995C100.649 16.9093 99.9841 17.0698 99.3781 17.3693C98.7978 17.682 98.4978 18.0611 98.4806 18.5018H104.25Z" fill="#794EFF"/>
<path d="M122.688 24.5536C122.024 25.5158 121.139 26.3038 120.107 26.8508C119.013 27.4206 117.793 27.7053 116.559 27.6786C115.326 27.6519 114.12 27.3147 113.051 26.6981C111.95 26.0625 111.034 25.148 110.396 24.0465C109.754 22.9327 109.415 21.6692 109.415 20.3829C109.415 19.0966 109.754 17.833 110.396 16.7193C111.037 15.6152 111.956 14.6991 113.061 14.0627C114.175 13.4099 115.443 13.0697 116.734 13.0779C117.903 13.071 119.056 13.3562 120.087 13.9076C121.11 14.4442 121.994 15.2112 122.671 16.1481L118.983 18.6102C118.319 17.8912 117.574 17.5318 116.746 17.5318C116.369 17.5254 115.995 17.5957 115.646 17.7383C115.297 17.8809 114.98 18.0929 114.716 18.3615C114.448 18.6254 114.237 18.9397 114.092 19.2863C113.947 19.6328 113.873 20.0047 113.873 20.3804C113.873 20.7561 113.947 21.128 114.092 21.4746C114.237 21.8211 114.448 22.1355 114.716 22.3993C114.98 22.6679 115.297 22.88 115.646 23.0226C115.995 23.1652 116.369 23.2354 116.746 23.229C117.554 23.229 118.3 22.8606 118.983 22.1236L122.688 24.5536Z" fill="#794EFF"/>
<path d="M132.659 13.4423H137.106V27.262H132.659V26.4889C131.798 27.2287 130.706 27.6418 129.572 27.6559C128.73 27.6494 127.898 27.4709 127.128 27.1315C126.256 26.7367 125.521 26.0914 125.016 25.2775C124.426 24.3945 124.131 23.2053 124.131 21.71V13.4423H128.605V21.71C128.605 22.4289 128.813 22.955 129.227 23.2882C129.647 23.6191 130.168 23.7932 130.702 23.7806C130.971 23.7907 131.239 23.7399 131.485 23.6321C131.732 23.5242 131.951 23.3621 132.126 23.1577C132.485 22.744 132.664 22.0941 132.664 21.2077L132.659 13.4423Z" fill="#794EFF"/>
<path d="M143.456 23.0518C143.676 23.1906 143.935 23.2537 144.193 23.2315C144.304 23.2315 144.582 23.2143 145.022 23.1774V27.262C144.263 27.3734 143.498 27.4384 142.731 27.4565C141.405 27.4565 140.415 27.111 139.761 26.4199C139.107 25.7289 138.779 24.4979 138.778 22.7268V7.90997H143.223V22.4018C143.21 22.5208 143.225 22.641 143.265 22.7535C143.306 22.8661 143.371 22.968 143.456 23.0518Z" fill="#794EFF"/>
<path d="M156.613 14.0233C157.669 14.6558 158.533 15.5639 159.113 16.6504C159.717 17.7948 160.022 19.0739 159.998 20.3681C160.01 20.888 159.963 21.4076 159.858 21.9168H150.138C150.746 23.2299 151.823 23.8864 153.37 23.8864C153.869 23.877 154.361 23.769 154.818 23.5688C155.256 23.3982 155.641 23.1165 155.937 22.7514L159.317 24.7531C158.673 25.6767 157.803 26.4193 156.79 26.9099C155.697 27.42 154.502 27.6727 153.297 27.6485C151.907 27.6777 150.534 27.3496 149.307 26.6957C148.188 26.0907 147.264 25.1796 146.642 24.0686C146.01 22.9387 145.683 21.6632 145.693 20.3681C145.676 19.069 145.995 17.7876 146.617 16.6479C147.22 15.5463 148.12 14.6362 149.213 14.0208C150.373 13.3729 151.683 13.0434 153.012 13.0656C154.278 13.0422 155.525 13.3739 156.613 14.0233ZM155.839 18.5019C155.78 18.2424 155.663 18.0001 155.495 17.7937C155.327 17.5874 155.114 17.4228 154.873 17.3127C154.258 17.0309 153.589 16.8897 152.913 16.8995C152.237 16.9093 151.572 17.0698 150.966 17.3693C150.386 17.682 150.086 18.0611 150.069 18.5019H155.839Z" fill="#794EFF"/>
</g>
<defs>
<clipPath id="clip0_1_6">
<rect width="160" height="41" fill="white"/>
</clipPath>
</defs>
</svg>
