<svg width="128" height="28" viewBox="0 0 128 28" fill="none" xmlns="http://www.w3.org/2000/svg">
<g clip-path="url(#clip0_1_64)">
<path fill-rule="evenodd" clip-rule="evenodd" d="M5.30654 7.79871C6.54597 7.79871 7.58628 8.38058 8.43058 9.54741V8.15928H12.1242V20.4605C12.1242 21.1987 12.0902 21.8579 12.0223 22.4413C11.9544 23.0247 11.8602 23.5385 11.7367 23.9857C11.5731 24.5521 11.3185 25.0798 10.9712 25.5689C10.6254 26.0579 10.2056 26.4834 9.71631 26.8425C9.22548 27.203 8.67136 27.4862 8.05396 27.692C7.43348 27.8979 6.7636 28 6.04279 28C5.22628 28 4.47614 27.8716 3.797 27.6147C3.11632 27.3578 2.52207 27.0019 2.01118 26.5469C1.50182 26.0919 1.08199 25.5596 0.75477 24.9514C0.429092 24.3417 0.211459 23.6762 0.101871 22.9566H4.26777C4.52553 23.8325 5.10897 24.2689 6.02118 24.2689C6.79756 24.2689 7.39335 23.9935 7.80855 23.4457C8.22221 22.8963 8.43058 22.1334 8.43058 21.1538V19.8941C8.15738 20.2206 7.89653 20.4914 7.64494 20.705C7.39335 20.9201 7.13713 21.095 6.87936 21.2327C6.62006 21.3689 6.3484 21.4695 6.06285 21.5283C5.77731 21.5886 5.46398 21.618 5.12286 21.618C4.37581 21.618 3.68896 21.4555 3.0623 21.1306C2.43564 20.804 1.89387 20.3491 1.44008 19.7657C0.983207 19.1822 0.629747 18.4828 0.378157 17.6672C0.126567 16.8532 0 15.9479 0 14.9544C0 13.9408 0.137371 13.0015 0.409027 12.1349C0.680682 11.2698 1.05266 10.5131 1.52034 9.86929C1.99111 9.22552 2.54831 8.72103 3.19504 8.35118C3.84022 7.98287 4.54405 7.79871 5.30654 7.79871ZM35.5762 7.67027C36.7323 7.67027 37.8544 7.95346 38.9426 8.51831L37.6985 11.5561C37.0178 11.1104 36.351 10.8876 35.6981 10.8876C35.357 10.8876 35.0807 10.9727 34.8724 11.1444C34.6594 11.3162 34.556 11.5468 34.556 11.8393C34.556 11.994 34.5714 12.1194 34.6069 12.2122C34.6393 12.3066 34.7149 12.3964 34.8292 12.483C34.9449 12.5697 35.1162 12.6455 35.34 12.7136C35.5654 12.7817 35.8602 12.8684 36.2291 12.9705C37.2494 13.2289 38.0118 13.687 38.515 14.3478C39.0182 15.0101 39.2698 15.8551 39.2698 16.8842C39.2698 17.6564 39.1479 18.3497 38.9024 18.9671C38.6586 19.5861 38.3175 20.1046 37.8822 20.5239C37.4469 20.9464 36.9221 21.2714 36.3094 21.502C35.6981 21.7341 35.0236 21.8502 34.2905 21.8502C32.8751 21.8502 31.4782 21.3441 30.1061 20.3321L31.452 17.0374C32.4861 17.9288 33.4662 18.376 34.3908 18.376C34.7319 18.376 35.0097 18.2816 35.2289 18.0928C35.4465 17.904 35.5546 17.6641 35.5546 17.3717C35.5546 17.2014 35.5376 17.0591 35.5037 16.9476C35.4697 16.8362 35.3972 16.7325 35.2891 16.6381C35.1811 16.5453 35.0205 16.4586 34.8106 16.3812C34.5992 16.3039 34.3229 16.2234 33.9833 16.1367C32.8396 15.8458 32.0416 15.4109 31.5847 14.8368C31.1294 14.2627 30.901 13.4704 30.901 12.4567C30.901 11.7201 31.0105 11.0547 31.2266 10.462C31.4458 9.86929 31.7576 9.3679 32.1666 8.9578C32.5741 8.54462 33.068 8.22737 33.6468 8.00453C34.2256 7.78169 34.8677 7.67027 35.5762 7.67027ZM44.7399 7.66919C45.896 7.66919 47.0197 7.95393 48.1079 8.51877L46.8623 11.5565C46.1831 11.1109 45.5148 10.8865 44.8619 10.8865C44.5223 10.8865 44.246 10.9731 44.0361 11.1434C43.8246 11.3167 43.7197 11.5473 43.7197 11.8397C43.7197 11.9929 43.7367 12.1183 43.7691 12.2127C43.8046 12.3055 43.8802 12.3968 43.9944 12.4835C44.1102 12.5686 44.28 12.646 44.5053 12.7141C44.7291 12.7822 45.0255 12.8688 45.3928 12.971C46.4131 13.2294 47.174 13.6875 47.6788 14.3483C48.1835 15.0091 48.4351 15.854 48.4351 16.8831C48.4351 17.6553 48.3116 18.3501 48.0662 18.9676C47.8208 19.5851 47.4827 20.1035 47.0459 20.5244C46.6107 20.9453 46.0859 21.2703 45.4746 21.5024C44.8619 21.7346 44.1889 21.8491 43.4542 21.8491C42.0388 21.8491 40.6435 21.3446 39.2698 20.3325L40.6157 17.0379C41.6499 17.9292 42.63 18.3749 43.5561 18.3749C43.8956 18.3749 44.175 18.2821 44.3942 18.0933C44.6103 17.9045 44.7183 17.6631 44.7183 17.3721C44.7183 17.2003 44.7029 17.0595 44.6674 16.9466C44.635 16.8367 44.5624 16.733 44.4544 16.6386C44.3448 16.5457 44.1858 16.4591 43.9744 16.3817C43.7629 16.3028 43.4882 16.2239 43.1471 16.1372C42.0049 15.8447 41.2053 15.4114 40.7485 14.8373C40.2931 14.2632 40.0662 13.4693 40.0662 12.4572C40.0662 11.719 40.1743 11.0552 40.3919 10.4625C40.6095 9.86975 40.9229 9.36836 41.3304 8.95672C41.7394 8.54508 42.2318 8.22784 42.8106 8.005C43.3894 7.78061 44.0315 7.66919 44.7399 7.66919ZM119.605 7.66919C120.908 7.66919 122.082 7.83786 123.126 8.17058C124.169 8.50639 125.052 8.99231 125.774 9.62525C126.495 10.2613 127.048 11.0366 127.429 11.9558C127.81 12.8735 128 13.9057 128 15.057V15.5445H116.535C116.535 17.5516 117.639 18.556 119.846 18.556C121.028 18.556 121.922 18.1443 122.524 17.321H127.789C126.727 20.3403 124.067 21.8491 119.815 21.8491C118.512 21.8491 117.317 21.6835 116.234 21.3477C115.15 21.0134 114.223 20.5383 113.449 19.9193C112.678 19.3019 112.082 18.5637 111.661 17.7079C111.239 16.8491 111.028 15.888 111.028 14.8234C111.028 13.7262 111.228 12.7358 111.631 11.8506C112.031 10.9685 112.602 10.2179 113.346 9.59894C114.087 8.98303 114.985 8.50639 116.038 8.17058C117.092 7.83786 118.281 7.66919 119.605 7.66919ZM22.5111 7.74672C23.8185 7.74672 24.9005 8.32239 25.7571 9.47065V8.1599H29.4723V21.3618H25.7571V19.8947C24.9684 21.1467 23.9003 21.7719 22.5528 21.7719C21.7919 21.7719 21.0896 21.597 20.4506 21.2457C19.81 20.8944 19.2528 20.4008 18.7759 19.7663C18.3005 19.1303 17.93 18.3843 17.6645 17.5255C17.3991 16.6697 17.2663 15.7335 17.2663 14.7214C17.2663 13.7774 17.396 12.8814 17.6537 12.0318C17.913 11.1838 18.2727 10.4409 18.7357 9.80646C19.1988 9.17198 19.7498 8.67058 20.3888 8.29918C21.0278 7.93087 21.7363 7.74672 22.5111 7.74672ZM86.8973 7.74672C88.8236 7.74672 90.418 8.32239 91.6806 9.47065V8.1599H97.1585V21.3618H91.6806V19.8947C90.5168 21.1467 88.944 21.7719 86.9575 21.7719C85.8323 21.7719 84.7997 21.597 83.8582 21.2457C82.9151 20.8944 82.0909 20.4008 81.3901 19.7663C80.6878 19.1303 80.1414 18.3843 79.7494 17.5255C79.3589 16.6697 79.1628 15.7335 79.1628 14.7214C79.1628 13.7774 79.3542 12.8814 79.7355 12.0318C80.1152 11.1838 80.6477 10.4409 81.3299 9.80646C82.0121 9.17198 82.824 8.67058 83.7671 8.29918C84.7102 7.93087 85.7536 7.74672 86.8973 7.74672ZM16.6563 0V21.3619H12.9612V0H16.6563ZM110.053 7.875C110.223 7.875 110.419 7.89358 110.639 7.92607V12.3798C109.917 12.0703 109.134 11.9156 108.292 11.9156C107.029 11.9156 106.081 12.2375 105.449 12.8812C104.816 13.5234 104.501 14.4643 104.501 15.6993V21.3616H99.0539V8.15975H104.501V10.3201C105.083 9.53085 105.794 8.92732 106.637 8.50639C107.48 8.08701 108.462 7.875 109.587 7.875H110.053ZM55.7255 8.15913L59.4252 15.1075L63.2793 8.15913H66.709L70.56 15.3133L74.4419 8.15913H80.4909L72.4261 21.361H68.785L64.934 14.1294L61.262 21.361H57.5591L49.6472 8.15913H55.7255ZM23.4912 11.7625C23.1517 11.7625 22.8353 11.8384 22.5435 11.9931C22.2487 12.1479 21.9971 12.3614 21.7888 12.6369C21.5773 12.9123 21.4091 13.2249 21.2871 13.5762C21.1652 13.9275 21.1035 14.3097 21.1035 14.7214C21.1035 15.15 21.1652 15.5493 21.2871 15.9176C21.4091 16.2859 21.5773 16.6078 21.7888 16.8833C21.9971 17.1572 22.2487 17.3723 22.5435 17.5255C22.8353 17.6818 23.1517 17.7592 23.4912 17.7592C23.8185 17.7592 24.1272 17.6818 24.4204 17.5255C24.7122 17.3723 24.9637 17.1572 25.1752 16.8833C25.3867 16.6078 25.5564 16.2906 25.6861 15.9315C25.8158 15.571 25.8806 15.1856 25.8806 14.7724C25.8806 14.3608 25.8158 13.9708 25.6861 13.601C25.5564 13.2327 25.3867 12.9123 25.1752 12.6369C24.9637 12.3614 24.7122 12.1479 24.4204 11.9931C24.1272 11.8384 23.8185 11.7625 23.4912 11.7625ZM88.3405 11.7625C87.8404 11.7625 87.3727 11.8384 86.9421 11.9931C86.5114 12.1479 86.141 12.3614 85.8277 12.6369C85.5174 12.9123 85.272 13.2249 85.0914 13.5762C84.9108 13.9275 84.8213 14.3097 84.8213 14.7214C84.8213 15.15 84.9108 15.5493 85.0914 15.9176C85.272 16.2859 85.5174 16.6078 85.8277 16.8833C86.141 17.1572 86.5114 17.3723 86.9421 17.5255C87.3727 17.6818 87.8404 17.7592 88.3405 17.7592C88.8236 17.7592 89.2789 17.6818 89.7111 17.5255C90.1417 17.3723 90.5137 17.1572 90.824 16.8833C91.1357 16.6078 91.3858 16.2906 91.5756 15.9315C91.767 15.571 91.8627 15.1856 91.8627 14.7724C91.8627 14.3608 91.767 13.9708 91.5756 13.601C91.3858 13.2327 91.1357 12.9123 90.824 12.6369C90.5137 12.3614 90.1417 12.1479 89.7111 11.9931C89.2789 11.8384 88.8236 11.7625 88.3405 11.7625ZM6.22646 11.7108C5.89924 11.7108 5.59363 11.7929 5.30654 11.9553C5.02254 12.1194 4.7694 12.3314 4.55177 12.5976C4.33568 12.8637 4.16127 13.1763 4.03161 13.5385C3.90196 13.8975 3.83713 14.2844 3.83713 14.696C3.83713 15.1247 3.89887 15.5239 4.02081 15.8922C4.14274 16.2605 4.31099 16.5824 4.52244 16.8579C4.73236 17.1318 4.98395 17.3453 5.27721 17.5001C5.56894 17.6564 5.88535 17.7322 6.22646 17.7322C6.55214 17.7322 6.86084 17.6564 7.15565 17.5001C7.44737 17.3453 7.69896 17.1318 7.91042 16.8579C8.12188 16.5824 8.29012 16.2605 8.41977 15.8922C8.54943 15.5239 8.61425 15.1339 8.61425 14.7208C8.61425 14.2936 8.54943 13.8975 8.41977 13.5385C8.29012 13.1763 8.11725 12.8606 7.89961 12.5852C7.68044 12.3113 7.42576 12.0962 7.13404 11.9414C6.84232 11.7882 6.53825 11.7108 6.22646 11.7108ZM119.755 10.6822C118.912 10.6822 118.225 10.871 117.693 11.247C117.163 11.6246 116.827 12.157 116.686 12.8425H122.914C122.734 12.191 122.363 11.668 121.801 11.2718C121.239 10.8772 120.557 10.6822 119.755 10.6822Z" fill="white"/>
</g>
<defs>
<clipPath id="clip0_1_64">
<rect width="128" height="28" fill="white"/>
</clipPath>
</defs>
</svg>
