<svg width="160" height="160" viewBox="0 0 160 160" fill="none" xmlns="http://www.w3.org/2000/svg">
<path d="M56.1631 54.3928L70.1134 78.6883L56.1631 102.983H28.2818L14.3698 78.6883L28.32 54.3928H56.2012H56.1631ZM63.3719 41.9238H21.1113L0 78.6977L21.1113 115.472H63.3337L84.445 78.6977L63.3337 41.9238H63.3719Z" fill="#FFC147"/>
<path d="M130.634 97.6411L144.584 121.936L130.634 146.232H102.753L88.8028 121.936L102.753 97.6411H130.634ZM137.805 85.1721H95.5822L74.4425 121.936L95.5538 158.72H137.776L158.887 121.936L137.805 85.1624V85.1721Z" fill="#794EFF"/>
<path d="M129.747 12.6792L142.811 35.4399L129.747 58.2007H103.621L90.5572 35.4399L103.621 12.6792H129.747ZM136.918 0.210205H96.4597L76.235 35.4591L96.4597 70.7081H136.927L157.152 35.4591L136.927 0.210205H136.918Z" fill="#97E747"/>
</svg>
