<svg width="92" height="56" viewBox="0 0 92 56" fill="none" xmlns="http://www.w3.org/2000/svg">
<g clip-path="url(#clip0_1_52)">
<path fill-rule="evenodd" clip-rule="evenodd" d="M3.27091 0C5.07682 0 6.54181 1.46278 6.54181 3.26784V16.1888C8.69017 14.8365 11.2301 14.0537 13.9528 14.0537C18.2357 14.0537 22.0732 15.9923 24.6362 19.0376C27.1961 15.9923 31.0352 14.0537 35.3181 14.0537C39.601 14.0537 43.4401 15.9923 46 19.0376C48.5614 15.9923 52.399 14.0537 56.6834 14.0537C60.9648 14.0537 64.8039 15.9923 67.3653 19.0376C69.9252 15.9923 73.7643 14.0537 78.0472 14.0537C85.7407 14.0537 92 20.3085 92 28V52.7306C92 54.5372 90.5365 56 88.7291 56C86.9232 56 85.4597 54.5372 85.4597 52.7306V39.8097C83.3114 41.1619 80.7684 41.9463 78.0472 41.9463C73.7643 41.9463 69.9252 40.0061 67.3653 36.9609C64.8039 40.0061 60.9648 41.9463 56.6834 41.9463C52.399 41.9463 48.5614 40.0061 46 36.9609C43.4401 40.0061 39.601 41.9463 35.3181 41.9463C27.6246 41.9463 21.3668 35.6899 21.3668 28C21.3668 23.914 18.0407 20.5909 13.9528 20.5909C9.86647 20.5909 6.54181 23.914 6.54181 28V38.6769C6.54181 40.482 5.07682 41.9463 3.27091 41.9463C1.465 41.9463 0 40.482 0 38.6769V3.26784C0 1.46278 1.465 0 3.27091 0ZM35.3181 20.5909C31.2302 20.5909 27.9056 23.914 27.9056 28C27.9056 32.0844 31.2302 35.4075 35.3181 35.4075C39.406 35.4075 42.7291 32.0844 42.7291 28C42.7291 23.914 39.406 20.5909 35.3181 20.5909ZM56.6834 20.5909C52.5956 20.5909 49.2694 23.914 49.2694 28C49.2694 32.0844 52.5956 35.4075 56.6834 35.4075C60.7698 35.4075 64.0944 32.0844 64.0944 28C64.0944 23.914 60.7698 20.5909 56.6834 20.5909ZM78.0472 20.5909C73.9609 20.5909 70.6347 23.914 70.6347 28C70.6347 32.0844 73.9609 35.4075 78.0472 35.4075C82.1274 35.4075 85.449 32.0952 85.4597 28.02V27.9939C85.4551 23.911 82.132 20.5909 78.0472 20.5909ZM35.3187 25.7526C37.421 25.7526 39.3221 26.6106 40.6888 27.9982C39.3221 29.3857 37.421 30.2468 35.3187 30.2468C33.2149 30.2468 31.3138 29.3857 29.9471 27.9982C31.3138 26.6106 33.2149 25.7526 35.3187 25.7526ZM56.6834 25.7526C58.7857 25.7526 60.6868 26.6106 62.0551 27.9982C60.6868 29.3857 58.7857 30.2468 56.6834 30.2468C54.5796 30.2468 52.6769 29.3857 51.3102 27.9982C52.6785 26.6106 54.5796 25.7526 56.6834 25.7526Z" fill="white"/>
</g>
<defs>
<clipPath id="clip0_1_52">
<rect width="92" height="56" fill="white"/>
</clipPath>
</defs>
</svg>
