<svg width="114" height="56" viewBox="0 0 114 56" fill="none" xmlns="http://www.w3.org/2000/svg">
<g clip-path="url(#clip0_1_58)">
<path fill-rule="evenodd" clip-rule="evenodd" d="M15.0799 16.0172C19.0391 16.0172 22.9983 16.6017 26.9587 16.6017C30.161 16.6017 30.5685 17.4201 30.5685 18.4722C30.5685 19.8751 29.8105 20.3427 27.4815 20.4596H25.1526C27.4815 22.8562 28.7636 26.1295 28.7636 29.4613C28.7636 33.9049 26.8993 37.9966 23.1148 40.1582C26.4917 41.153 29.5787 43.608 29.5787 46.8802C29.5787 52.3771 24.2222 56 14.0319 56C5.12367 56 0.698683 54.0126 0.698683 50.8562C0.698683 47.9335 4.25032 46.18 6.57926 46.18C7.68551 46.18 8.50064 46.5307 8.50064 47.2321C8.50064 47.757 7.91841 48.3415 7.91841 49.1026C7.91841 50.1547 8.84998 51.6745 14.2648 51.6745C20.1454 51.6745 22.2414 49.5702 22.2414 47.2321C22.2414 44.894 20.2036 43.1989 18.1075 42.2625C16.6519 42.7885 15.1381 42.9066 14.2066 42.9066C5.9388 42.9066 0 37.9966 0 30.0458C0 20.8103 6.11347 16.0172 15.0799 16.0172ZM83.841 0C85.4724 0 85.9382 0.351885 85.9382 2.10547V38.8734C85.9382 41.796 88.7318 41.3857 88.7318 42.7312C88.7318 44.0172 88.2672 44.5421 85.9382 44.5421H81.6297C78.9502 44.5421 79.0678 43.2573 78.892 41.0934C76.5631 43.9003 73.8277 45.1266 69.518 45.1266C60.668 45.1266 57.0582 38.5811 57.0582 31.2149C57.0582 22.9146 62.7641 16.0172 71.3229 16.0172C74.1188 16.0172 76.0391 16.7771 78.368 18.3553V7.60002C78.368 4.73584 75.1075 5.37765 75.1075 3.39026C75.1075 2.57192 75.8655 1.98739 76.5048 1.75358C77.4364 1.40286 82.2119 0 83.841 0ZM102.472 16.0172C107.945 16.0172 113.243 18.8229 113.243 22.0963C113.243 23.733 111.904 24.902 109.576 24.902C108.028 24.902 107.324 23.6987 106.572 22.395L106.366 22.0378C105.528 20.6057 104.539 19.1736 102.239 19.1736C98.2785 19.1736 95.3673 23.8499 95.3673 31.0395C95.3673 37.1782 99.0948 40.9192 103.462 40.9192C108.994 40.9192 110.623 36.4172 112.544 36.4172C113.361 36.4172 114 37.0017 114 37.82C114 40.3347 108.76 45.1266 101.772 45.1266C93.5053 45.1266 87.3324 39.3994 87.3324 30.9811C87.3324 22.2716 93.8546 16.0172 102.472 16.0172ZM37.2042 0.000467621C39.0091 0.000467621 39.3002 1.22797 39.3002 3.85834V29.4618C41.5127 28.3512 48.7907 22.7397 48.7907 20.6354C48.7907 19.2899 45.8795 19.8744 45.8795 18.0051C45.8795 17.0114 46.4617 16.6022 47.3945 16.6022H55.6622C57.0584 16.6022 57.8747 17.0686 57.8747 18.0051C57.8747 19.6417 56.2444 19.3495 54.0319 21.4538C51.9359 23.4996 48.5578 26.8899 47.9767 27.7082C51.9359 31.683 54.6142 35.1901 57.5253 40.2171C58.4569 41.7953 60.553 41.503 60.553 43.1409C60.553 44.1919 59.7961 44.5426 58.748 44.5426H48.7907C47.5097 44.5426 46.9275 43.7254 46.9275 42.9071C46.9275 41.6199 48.5578 41.738 48.5578 41.0354C48.5578 39.9844 44.8314 34.6056 42.619 31.7999L39.3002 34.138V38.6973C39.3002 42.5564 42.0367 40.7432 42.0367 42.9644C42.0367 43.958 41.3963 44.5426 39.8824 44.5426H31.1489C29.6351 44.5426 28.9946 43.958 28.9946 42.9644C28.9946 41.9771 29.5352 41.7869 30.1358 41.5413L30.3173 41.4652C31.0163 41.1603 31.7311 40.6697 31.7311 38.6973V7.59932C31.7311 4.73513 28.5871 5.37811 28.5871 3.62453C28.5871 2.74774 29.4604 2.57239 30.1009 2.22167C31.44 1.52024 35.5739 0.000467621 37.2042 0.000467621ZM72.2545 19.7582C68.2371 19.7582 65.093 23.0315 65.093 30.455C65.093 37.8785 68.2371 41.153 72.2545 41.153C75.3986 41.153 78.368 38.5811 78.368 35.6585V25.3696C78.368 21.7456 75.6315 19.7582 72.2545 19.7582ZM14.3812 19.5244C10.8296 19.5244 8.03485 22.9146 8.03485 29.3444C8.03485 35.7742 10.8296 39.1656 14.3812 39.1656C17.9329 39.1656 20.7276 35.7742 20.7276 29.3444C20.7276 22.9146 17.9329 19.5244 14.3812 19.5244Z" fill="white"/>
</g>
<defs>
<clipPath id="clip0_1_58">
<rect width="114" height="56" fill="white"/>
</clipPath>
</defs>
</svg>
